# xmcd
#
# Track frame offsets: 
#        150
#        17529
#        39975
#        56701
#        78468
#        104797
#        155509
#        159210
#        174231
#        210892
#
# Disc length: 3144 seconds
#
# Revision: 0
# Processed by: cddbd v1.5.2PL0 Copyright (c) Steve Scherf et al.
# Submitted via: ExactAudioCopy v0.95b3
#
DISCID=6f0c460a
DTITLE=George Harrison  - All Things Must Pass (1970) [VINYL] (Toshiba
DTITLE=Red Vinyl, 16-bit audio) - Disc 2 
DYEAR=1900
DGENRE=
TTITLE0=All Things Must Pass
TTITLE1=I Dig Love
TTITLE2=Art Of Dying
TTITLE3=Isn't It A Pity (Version Two)
TTITLE4=Hear Me Lord
TTITLE5=Out Of The Blue
TTITLE6=It's Johnny's Birthday
TTITLE7=Plug Me In
TTITLE8=I Remember Jeep
TTITLE9=Thanks For The Pepperoni
EXTD=
EXTT0=
EXTT1=
EXTT2=
EXTT3=
EXTT4=
EXTT5=
EXTT6=
EXTT7=
EXTT8=
EXTT9=
PLAYORDER=
